<mxfile host="Electron" agent="Mozilla/5.0 (Windows NT 10.0; Win64; x64) AppleWebKit/537.36 (KHTML, like Gecko) draw.io/24.7.17 Chrome/128.0.6613.36 Electron/32.0.1 Safari/537.36" version="24.7.17" pages="9">
  <diagram name="Wireframe" id="O_iBGpvAYk920_aTWW0I">
    <mxGraphModel dx="1434" dy="844" grid="1" gridSize="10" guides="1" tooltips="1" connect="1" arrows="1" fold="1" page="1" pageScale="1" pageWidth="3300" pageHeight="4681" math="0" shadow="0">
      <root>
        <mxCell id="0" />
        <mxCell id="1" parent="0" />
        <mxCell id="RctljT-5siZ5orJqexGy-1" value="Practica ochen sloznay" style="strokeWidth=1;shadow=0;dashed=0;align=center;html=1;shape=mxgraph.mockup.containers.window;align=left;verticalAlign=top;spacingLeft=8;strokeColor2=#008cff;strokeColor3=#c4c4c4;fontColor=#666666;mainText=;fontSize=17;labelBackgroundColor=none;whiteSpace=wrap;" parent="1" vertex="1">
          <mxGeometry x="320" y="160" width="840" height="560" as="geometry" />
        </mxCell>
        <mxCell id="RctljT-5siZ5orJqexGy-2" value="" style="verticalLabelPosition=bottom;shadow=0;dashed=0;align=center;html=1;verticalAlign=top;strokeWidth=1;shape=mxgraph.mockup.graphics.lineChart;strokeColor=none;strokeColor2=#666666;strokeColor3=#008cff;strokeColor4=#dddddd;" parent="1" vertex="1">
          <mxGeometry x="360" y="300" width="740" height="380" as="geometry" />
        </mxCell>
        <mxCell id="RctljT-5siZ5orJqexGy-3" value="Нарисовать график" style="strokeWidth=1;shadow=0;dashed=0;align=center;html=1;shape=mxgraph.mockup.buttons.button;strokeColor=#666666;fontColor=#ffffff;mainText=;buttonStyle=round;fontSize=17;fontStyle=1;fillColor=#008cff;whiteSpace=wrap;" parent="1" vertex="1">
          <mxGeometry x="950" y="230" width="190" height="30" as="geometry" />
        </mxCell>
        <mxCell id="RctljT-5siZ5orJqexGy-4" value="" style="rounded=0;whiteSpace=wrap;html=1;" parent="1" vertex="1">
          <mxGeometry x="350" y="230" width="600" height="30" as="geometry" />
        </mxCell>
        <mxCell id="RctljT-5siZ5orJqexGy-14" value="о программе" style="strokeWidth=1;shadow=0;dashed=0;align=center;html=1;shape=mxgraph.mockup.buttons.button;strokeColor=#666666;fontColor=#ffffff;mainText=;buttonStyle=round;fontSize=17;fontStyle=1;fillColor=#008cff;whiteSpace=wrap;" parent="1" vertex="1">
          <mxGeometry x="320" y="190" width="120" height="30" as="geometry" />
        </mxCell>
        <mxCell id="RctljT-5siZ5orJqexGy-15" value="выход" style="strokeWidth=1;shadow=0;dashed=0;align=center;html=1;shape=mxgraph.mockup.buttons.button;strokeColor=#666666;fontColor=#ffffff;mainText=;buttonStyle=round;fontSize=17;fontStyle=1;fillColor=#008cff;whiteSpace=wrap;" parent="1" vertex="1">
          <mxGeometry x="440" y="190" width="150" height="30" as="geometry" />
        </mxCell>
        <mxCell id="nh5dFLF-CI0TM2hfw_-f-1" value="информация&amp;nbsp;&lt;br&gt;о программе" style="text;html=1;strokeColor=none;fillColor=none;align=center;verticalAlign=middle;whiteSpace=wrap;rounded=0;" parent="1" vertex="1">
          <mxGeometry x="163" y="160" width="110" height="30" as="geometry" />
        </mxCell>
        <mxCell id="nh5dFLF-CI0TM2hfw_-f-2" value="" style="endArrow=none;dashed=1;html=1;rounded=0;" parent="1" target="RctljT-5siZ5orJqexGy-14" edge="1">
          <mxGeometry width="50" height="50" relative="1" as="geometry">
            <mxPoint x="243" y="180" as="sourcePoint" />
            <mxPoint x="320" y="208" as="targetPoint" />
          </mxGeometry>
        </mxCell>
        <mxCell id="nh5dFLF-CI0TM2hfw_-f-3" value="кнопка выход" style="text;html=1;strokeColor=none;fillColor=none;align=center;verticalAlign=middle;whiteSpace=wrap;rounded=0;" parent="1" vertex="1">
          <mxGeometry x="436.5" y="90" width="110" height="30" as="geometry" />
        </mxCell>
        <mxCell id="nh5dFLF-CI0TM2hfw_-f-4" value="" style="endArrow=none;dashed=1;html=1;rounded=0;" parent="1" target="RctljT-5siZ5orJqexGy-15" edge="1">
          <mxGeometry width="50" height="50" relative="1" as="geometry">
            <mxPoint x="516.5" y="110" as="sourcePoint" />
            <mxPoint x="593.5" y="138" as="targetPoint" />
          </mxGeometry>
        </mxCell>
        <mxCell id="nh5dFLF-CI0TM2hfw_-f-5" value="эта кнопка рисует график" style="text;html=1;strokeColor=none;fillColor=none;align=center;verticalAlign=middle;whiteSpace=wrap;rounded=0;" parent="1" vertex="1">
          <mxGeometry x="1170" y="150" width="110" height="30" as="geometry" />
        </mxCell>
        <mxCell id="nh5dFLF-CI0TM2hfw_-f-6" value="" style="endArrow=none;dashed=1;html=1;rounded=0;entryX=0.995;entryY=0.567;entryDx=0;entryDy=0;entryPerimeter=0;" parent="1" target="RctljT-5siZ5orJqexGy-3" edge="1">
          <mxGeometry width="50" height="50" relative="1" as="geometry">
            <mxPoint x="1250" y="170" as="sourcePoint" />
            <mxPoint x="1248.5" y="250" as="targetPoint" />
          </mxGeometry>
        </mxCell>
      </root>
    </mxGraphModel>
  </diagram>
  <diagram id="CtF-pTb6lKLxIg0oleaa" name="Диаграмма ВИ">
    <mxGraphModel dx="1434" dy="844" grid="1" gridSize="10" guides="1" tooltips="1" connect="1" arrows="1" fold="1" page="0" pageScale="1" pageWidth="3300" pageHeight="4681" math="0" shadow="0">
      <root>
        <mxCell id="0" />
        <mxCell id="1" parent="0" />
        <mxCell id="cUysmlab8U1tmT1frR8c-1" value="Пользователь" style="shape=umlActor;verticalLabelPosition=bottom;verticalAlign=top;html=1;outlineConnect=0;" parent="1" vertex="1">
          <mxGeometry x="370" y="390" width="30" height="60" as="geometry" />
        </mxCell>
        <mxCell id="cUysmlab8U1tmT1frR8c-2" value="" style="rounded=0;whiteSpace=wrap;html=1;" parent="1" vertex="1">
          <mxGeometry x="480" y="245" width="480" height="370" as="geometry" />
        </mxCell>
        <mxCell id="cUysmlab8U1tmT1frR8c-3" value="Practica ochen sloznay" style="text;html=1;strokeColor=none;fillColor=none;align=center;verticalAlign=middle;whiteSpace=wrap;rounded=0;" parent="1" vertex="1">
          <mxGeometry x="480" y="245" width="140" height="30" as="geometry" />
        </mxCell>
        <mxCell id="cUysmlab8U1tmT1frR8c-7" value="Рисует график" style="ellipse;whiteSpace=wrap;html=1;fillColor=#0062ff;" parent="1" vertex="1">
          <mxGeometry x="680" y="375" width="120" height="60" as="geometry" />
        </mxCell>
        <mxCell id="cUysmlab8U1tmT1frR8c-9" value="Пишет слово" style="ellipse;whiteSpace=wrap;html=1;fillColor=#0062ff;strokeColor=none;" parent="1" vertex="1">
          <mxGeometry x="500" y="325" width="120" height="60" as="geometry" />
        </mxCell>
        <mxCell id="cUysmlab8U1tmT1frR8c-10" value="" style="endArrow=classic;html=1;rounded=0;exitX=1;exitY=0.5;exitDx=0;exitDy=0;entryX=0;entryY=0.5;entryDx=0;entryDy=0;dashed=1;" parent="1" source="cUysmlab8U1tmT1frR8c-9" target="cUysmlab8U1tmT1frR8c-7" edge="1">
          <mxGeometry width="50" height="50" relative="1" as="geometry">
            <mxPoint x="730" y="555" as="sourcePoint" />
            <mxPoint x="780" y="505" as="targetPoint" />
          </mxGeometry>
        </mxCell>
        <mxCell id="cUysmlab8U1tmT1frR8c-12" value="Включение" style="text;html=1;strokeColor=none;fillColor=none;align=center;verticalAlign=middle;whiteSpace=wrap;rounded=0;" parent="1" vertex="1">
          <mxGeometry x="620" y="385" width="60" height="30" as="geometry" />
        </mxCell>
        <mxCell id="LVI39p7QGF-DMtgDRiKd-2" value="" style="endArrow=none;html=1;rounded=0;exitX=0.5;exitY=0.5;exitDx=0;exitDy=0;exitPerimeter=0;entryX=0;entryY=0.5;entryDx=0;entryDy=0;endFill=0;" parent="1" source="cUysmlab8U1tmT1frR8c-1" target="cUysmlab8U1tmT1frR8c-9" edge="1">
          <mxGeometry width="50" height="50" relative="1" as="geometry">
            <mxPoint x="660" y="570" as="sourcePoint" />
            <mxPoint x="710" y="520" as="targetPoint" />
          </mxGeometry>
        </mxCell>
        <mxCell id="nwqX_s-oA9YgKhEgbZ1z-1" value="Смотрит график&amp;nbsp;" style="ellipse;whiteSpace=wrap;html=1;fillColor=#0062ff;strokeColor=none;" parent="1" vertex="1">
          <mxGeometry x="500" y="430" width="120" height="60" as="geometry" />
        </mxCell>
        <mxCell id="nwqX_s-oA9YgKhEgbZ1z-3" value="" style="endArrow=none;html=1;rounded=0;exitX=0.5;exitY=0.5;exitDx=0;exitDy=0;exitPerimeter=0;entryX=0;entryY=0.5;entryDx=0;entryDy=0;endFill=0;" parent="1" source="cUysmlab8U1tmT1frR8c-1" target="nwqX_s-oA9YgKhEgbZ1z-1" edge="1">
          <mxGeometry width="50" height="50" relative="1" as="geometry">
            <mxPoint x="340" y="595" as="sourcePoint" />
            <mxPoint x="455" y="530" as="targetPoint" />
          </mxGeometry>
        </mxCell>
      </root>
    </mxGraphModel>
  </diagram>
  <diagram id="hAumMNy1VQmA_DwHPZch" name="Диаграмма последовательности">
    <mxGraphModel dx="1434" dy="844" grid="1" gridSize="10" guides="1" tooltips="1" connect="1" arrows="1" fold="1" page="1" pageScale="1" pageWidth="3300" pageHeight="4681" math="0" shadow="0">
      <root>
        <mxCell id="0" />
        <mxCell id="1" parent="0" />
        <mxCell id="j4QNEOEcWeJZfFA8d1bK-1" value="" style="shape=umlActor;verticalLabelPosition=bottom;verticalAlign=top;html=1;" parent="1" vertex="1">
          <mxGeometry x="475" y="60" width="30" height="60" as="geometry" />
        </mxCell>
        <mxCell id="j4QNEOEcWeJZfFA8d1bK-2" value="пользователь" style="shape=umlLifeline;perimeter=lifelinePerimeter;whiteSpace=wrap;html=1;container=1;dropTarget=0;collapsible=0;recursiveResize=0;outlineConnect=0;portConstraint=eastwest;newEdgeStyle={&quot;curved&quot;:0,&quot;rounded&quot;:0};size=20;" parent="1" vertex="1">
          <mxGeometry x="440" y="120" width="100" height="620" as="geometry" />
        </mxCell>
        <mxCell id="j4QNEOEcWeJZfFA8d1bK-3" value="" style="html=1;points=[[0,0,0,0,5],[0,1,0,0,-5],[1,0,0,0,5],[1,1,0,0,-5]];perimeter=orthogonalPerimeter;outlineConnect=0;targetShapes=umlLifeline;portConstraint=eastwest;newEdgeStyle={&quot;curved&quot;:0,&quot;rounded&quot;:0};" parent="j4QNEOEcWeJZfFA8d1bK-2" vertex="1">
          <mxGeometry x="45" y="260" width="10" height="180" as="geometry" />
        </mxCell>
        <mxCell id="j4QNEOEcWeJZfFA8d1bK-4" value="программа" style="shape=umlLifeline;perimeter=lifelinePerimeter;whiteSpace=wrap;html=1;container=1;dropTarget=0;collapsible=0;recursiveResize=0;outlineConnect=0;portConstraint=eastwest;newEdgeStyle={&quot;curved&quot;:0,&quot;rounded&quot;:0};size=20;" parent="1" vertex="1">
          <mxGeometry x="575" y="120" width="100" height="620" as="geometry" />
        </mxCell>
        <mxCell id="j4QNEOEcWeJZfFA8d1bK-5" value="" style="html=1;points=[[0,0,0,0,5],[0,1,0,0,-5],[1,0,0,0,5],[1,1,0,0,-5]];perimeter=orthogonalPerimeter;outlineConnect=0;targetShapes=umlLifeline;portConstraint=eastwest;newEdgeStyle={&quot;curved&quot;:0,&quot;rounded&quot;:0};" parent="j4QNEOEcWeJZfFA8d1bK-4" vertex="1">
          <mxGeometry x="45" y="260" width="10" height="160" as="geometry" />
        </mxCell>
        <mxCell id="j4QNEOEcWeJZfFA8d1bK-6" value="пишет слово" style="html=1;verticalAlign=bottom;endArrow=block;curved=0;rounded=0;entryX=0;entryY=0;entryDx=0;entryDy=5;entryPerimeter=0;" parent="1" edge="1">
          <mxGeometry relative="1" as="geometry">
            <mxPoint x="495" y="390" as="sourcePoint" />
            <mxPoint x="620" y="390" as="targetPoint" />
          </mxGeometry>
        </mxCell>
        <mxCell id="SNgnnNaDTQEAvgYIw97m-1" value="класс" style="shape=umlLifeline;perimeter=lifelinePerimeter;whiteSpace=wrap;html=1;container=1;dropTarget=0;collapsible=0;recursiveResize=0;outlineConnect=0;portConstraint=eastwest;newEdgeStyle={&quot;curved&quot;:0,&quot;rounded&quot;:0};size=20;" parent="1" vertex="1">
          <mxGeometry x="750" y="120" width="100" height="620" as="geometry" />
        </mxCell>
        <mxCell id="SNgnnNaDTQEAvgYIw97m-2" value="" style="html=1;points=[[0,0,0,0,5],[0,1,0,0,-5],[1,0,0,0,5],[1,1,0,0,-5]];perimeter=orthogonalPerimeter;outlineConnect=0;targetShapes=umlLifeline;portConstraint=eastwest;newEdgeStyle={&quot;curved&quot;:0,&quot;rounded&quot;:0};" parent="SNgnnNaDTQEAvgYIw97m-1" vertex="1">
          <mxGeometry x="45" y="270" width="10" height="130" as="geometry" />
        </mxCell>
        <mxCell id="j4QNEOEcWeJZfFA8d1bK-8" value="" style="html=1;align=left;spacingLeft=2;endArrow=block;rounded=0;edgeStyle=orthogonalEdgeStyle;curved=0;rounded=0;" parent="SNgnnNaDTQEAvgYIw97m-1" source="SNgnnNaDTQEAvgYIw97m-2" target="SNgnnNaDTQEAvgYIw97m-2" edge="1">
          <mxGeometry relative="1" as="geometry">
            <mxPoint x="80" y="310" as="sourcePoint" />
            <Array as="points">
              <mxPoint x="110" y="290" />
              <mxPoint x="110" y="380" />
            </Array>
            <mxPoint x="80" y="380" as="targetPoint" />
          </mxGeometry>
        </mxCell>
        <mxCell id="SNgnnNaDTQEAvgYIw97m-3" style="edgeStyle=orthogonalEdgeStyle;rounded=0;orthogonalLoop=1;jettySize=auto;html=1;curved=0;exitX=1;exitY=0;exitDx=0;exitDy=5;exitPerimeter=0;entryX=0;entryY=0;entryDx=0;entryDy=5;entryPerimeter=0;" parent="1" source="j4QNEOEcWeJZfFA8d1bK-5" target="SNgnnNaDTQEAvgYIw97m-2" edge="1">
          <mxGeometry relative="1" as="geometry">
            <Array as="points">
              <mxPoint x="630" y="395" />
            </Array>
          </mxGeometry>
        </mxCell>
        <mxCell id="SNgnnNaDTQEAvgYIw97m-13" value="Передает в" style="edgeLabel;html=1;align=center;verticalAlign=middle;resizable=0;points=[];" parent="SNgnnNaDTQEAvgYIw97m-3" vertex="1" connectable="0">
          <mxGeometry x="0.1314" y="-1" relative="1" as="geometry">
            <mxPoint as="offset" />
          </mxGeometry>
        </mxCell>
        <mxCell id="SNgnnNaDTQEAvgYIw97m-4" style="edgeStyle=orthogonalEdgeStyle;rounded=0;orthogonalLoop=1;jettySize=auto;html=1;curved=0;exitX=0;exitY=1;exitDx=0;exitDy=-5;exitPerimeter=0;dashed=1;endArrow=open;endFill=0;" parent="1" source="SNgnnNaDTQEAvgYIw97m-2" edge="1">
          <mxGeometry relative="1" as="geometry">
            <mxPoint x="630" y="515" as="targetPoint" />
            <Array as="points">
              <mxPoint x="630" y="515" />
            </Array>
          </mxGeometry>
        </mxCell>
        <mxCell id="SNgnnNaDTQEAvgYIw97m-14" value="проверяет значения" style="edgeLabel;html=1;align=center;verticalAlign=middle;resizable=0;points=[];" parent="SNgnnNaDTQEAvgYIw97m-4" vertex="1" connectable="0">
          <mxGeometry x="-0.0909" y="-3" relative="1" as="geometry">
            <mxPoint as="offset" />
          </mxGeometry>
        </mxCell>
        <mxCell id="SNgnnNaDTQEAvgYIw97m-6" style="edgeStyle=orthogonalEdgeStyle;rounded=0;orthogonalLoop=1;jettySize=auto;html=1;curved=0;exitX=0;exitY=1;exitDx=0;exitDy=-5;exitPerimeter=0;dashed=1;endArrow=open;endFill=0;" parent="1" source="j4QNEOEcWeJZfFA8d1bK-5" target="j4QNEOEcWeJZfFA8d1bK-3" edge="1">
          <mxGeometry relative="1" as="geometry">
            <Array as="points">
              <mxPoint x="530" y="535" />
              <mxPoint x="530" y="535" />
            </Array>
          </mxGeometry>
        </mxCell>
        <mxCell id="SNgnnNaDTQEAvgYIw97m-15" value="рисует график" style="edgeLabel;html=1;align=center;verticalAlign=middle;resizable=0;points=[];" parent="SNgnnNaDTQEAvgYIw97m-6" vertex="1" connectable="0">
          <mxGeometry x="-0.12" y="-2" relative="1" as="geometry">
            <mxPoint as="offset" />
          </mxGeometry>
        </mxCell>
      </root>
    </mxGraphModel>
  </diagram>
  <diagram id="xZ573r2tU7NuYgMtWYME" name="Диаграмма деятельности">
    <mxGraphModel dx="1434" dy="844" grid="1" gridSize="10" guides="1" tooltips="1" connect="1" arrows="1" fold="1" page="1" pageScale="1" pageWidth="3300" pageHeight="4681" math="0" shadow="0">
      <root>
        <mxCell id="0" />
        <mxCell id="1" parent="0" />
        <mxCell id="HFIAmmge9mZrmDAxWq8o-3" value="" style="shape=internalStorage;whiteSpace=wrap;html=1;backgroundOutline=1;dx=20;dy=30;" parent="1" vertex="1">
          <mxGeometry x="310" y="110" width="150" height="500" as="geometry" />
        </mxCell>
        <mxCell id="HFIAmmge9mZrmDAxWq8o-4" value="" style="shape=internalStorage;whiteSpace=wrap;html=1;backgroundOutline=1;dx=0;dy=30;" parent="1" vertex="1">
          <mxGeometry x="460" y="110" width="160" height="500" as="geometry" />
        </mxCell>
        <mxCell id="HFIAmmge9mZrmDAxWq8o-5" value="" style="shape=internalStorage;whiteSpace=wrap;html=1;backgroundOutline=1;dx=0;dy=30;" parent="1" vertex="1">
          <mxGeometry x="620" y="110" width="180" height="500" as="geometry" />
        </mxCell>
        <mxCell id="HFIAmmge9mZrmDAxWq8o-6" value="Интерфейс" style="text;html=1;align=center;verticalAlign=middle;resizable=0;points=[];autosize=1;strokeColor=none;fillColor=none;" parent="1" vertex="1">
          <mxGeometry x="495" y="110" width="90" height="30" as="geometry" />
        </mxCell>
        <mxCell id="HFIAmmge9mZrmDAxWq8o-7" value="Пользователь" style="text;html=1;align=center;verticalAlign=middle;resizable=0;points=[];autosize=1;strokeColor=none;fillColor=none;" parent="1" vertex="1">
          <mxGeometry x="340" y="110" width="100" height="30" as="geometry" />
        </mxCell>
        <mxCell id="HFIAmmge9mZrmDAxWq8o-8" value="Основной класс проекта" style="text;html=1;align=center;verticalAlign=middle;resizable=0;points=[];autosize=1;strokeColor=none;fillColor=none;" parent="1" vertex="1">
          <mxGeometry x="630" y="110" width="160" height="30" as="geometry" />
        </mxCell>
        <mxCell id="HFIAmmge9mZrmDAxWq8o-9" value="" style="shape=internalStorage;whiteSpace=wrap;html=1;backgroundOutline=1;dx=0;dy=30;" parent="1" vertex="1">
          <mxGeometry x="800" y="110" width="130" height="500" as="geometry" />
        </mxCell>
        <mxCell id="HFIAmmge9mZrmDAxWq8o-10" value="ClassPipi" style="text;html=1;align=center;verticalAlign=middle;resizable=0;points=[];autosize=1;strokeColor=none;fillColor=none;" parent="1" vertex="1">
          <mxGeometry x="820" y="110" width="70" height="30" as="geometry" />
        </mxCell>
        <mxCell id="HFIAmmge9mZrmDAxWq8o-11" value="Practica ochen sloznay" style="rounded=0;whiteSpace=wrap;html=1;align=left;" parent="1" vertex="1">
          <mxGeometry x="310" y="90" width="620" height="20" as="geometry" />
        </mxCell>
        <mxCell id="lDLtrvK9s7OYPXzlOgYv-2" style="edgeStyle=orthogonalEdgeStyle;rounded=0;orthogonalLoop=1;jettySize=auto;html=1;exitX=0.5;exitY=1;exitDx=0;exitDy=0;entryX=0.5;entryY=0;entryDx=0;entryDy=0;" parent="1" source="p0YxW8cbbCcFsUpxRecI-1" target="lDLtrvK9s7OYPXzlOgYv-1" edge="1">
          <mxGeometry relative="1" as="geometry" />
        </mxCell>
        <mxCell id="p0YxW8cbbCcFsUpxRecI-1" value="" style="ellipse;" parent="1" vertex="1">
          <mxGeometry x="375" y="160" width="30" height="30" as="geometry" />
        </mxCell>
        <mxCell id="lDLtrvK9s7OYPXzlOgYv-5" style="edgeStyle=orthogonalEdgeStyle;rounded=0;orthogonalLoop=1;jettySize=auto;html=1;exitX=0.5;exitY=1;exitDx=0;exitDy=0;entryX=0.5;entryY=0;entryDx=0;entryDy=0;" parent="1" source="lDLtrvK9s7OYPXzlOgYv-1" target="lDLtrvK9s7OYPXzlOgYv-3" edge="1">
          <mxGeometry relative="1" as="geometry" />
        </mxCell>
        <mxCell id="lDLtrvK9s7OYPXzlOgYv-1" value="запускает программу" style="rounded=1;whiteSpace=wrap;html=1;" parent="1" vertex="1">
          <mxGeometry x="340" y="220" width="100" height="40" as="geometry" />
        </mxCell>
        <mxCell id="lDLtrvK9s7OYPXzlOgYv-6" style="edgeStyle=orthogonalEdgeStyle;rounded=0;orthogonalLoop=1;jettySize=auto;html=1;exitX=1;exitY=0.5;exitDx=0;exitDy=0;entryX=0;entryY=0.5;entryDx=0;entryDy=0;" parent="1" source="lDLtrvK9s7OYPXzlOgYv-3" target="lDLtrvK9s7OYPXzlOgYv-4" edge="1">
          <mxGeometry relative="1" as="geometry" />
        </mxCell>
        <mxCell id="lDLtrvK9s7OYPXzlOgYv-3" value="пишет слово" style="rounded=1;whiteSpace=wrap;html=1;" parent="1" vertex="1">
          <mxGeometry x="340" y="280" width="100" height="40" as="geometry" />
        </mxCell>
        <mxCell id="lDLtrvK9s7OYPXzlOgYv-12" style="edgeStyle=orthogonalEdgeStyle;rounded=0;orthogonalLoop=1;jettySize=auto;html=1;exitX=1;exitY=0.5;exitDx=0;exitDy=0;entryX=0;entryY=0.5;entryDx=0;entryDy=0;" parent="1" source="lDLtrvK9s7OYPXzlOgYv-4" target="lDLtrvK9s7OYPXzlOgYv-11" edge="1">
          <mxGeometry relative="1" as="geometry" />
        </mxCell>
        <mxCell id="lDLtrvK9s7OYPXzlOgYv-4" value="передает в &lt;br&gt;класс" style="rounded=1;whiteSpace=wrap;html=1;" parent="1" vertex="1">
          <mxGeometry x="490" y="280" width="100" height="40" as="geometry" />
        </mxCell>
        <mxCell id="lDLtrvK9s7OYPXzlOgYv-16" style="edgeStyle=orthogonalEdgeStyle;rounded=0;orthogonalLoop=1;jettySize=auto;html=1;exitX=1;exitY=0.5;exitDx=0;exitDy=0;entryX=0;entryY=0.5;entryDx=0;entryDy=0;" parent="1" source="lDLtrvK9s7OYPXzlOgYv-8" target="lDLtrvK9s7OYPXzlOgYv-15" edge="1">
          <mxGeometry relative="1" as="geometry" />
        </mxCell>
        <mxCell id="lDLtrvK9s7OYPXzlOgYv-23" style="edgeStyle=orthogonalEdgeStyle;rounded=0;orthogonalLoop=1;jettySize=auto;html=1;exitX=0;exitY=0.5;exitDx=0;exitDy=0;entryX=0.5;entryY=0;entryDx=0;entryDy=0;" parent="1" source="lDLtrvK9s7OYPXzlOgYv-8" target="lDLtrvK9s7OYPXzlOgYv-22" edge="1">
          <mxGeometry relative="1" as="geometry" />
        </mxCell>
        <mxCell id="lDLtrvK9s7OYPXzlOgYv-8" value="проверка&amp;nbsp;&lt;br&gt;на числа" style="rhombus;whiteSpace=wrap;html=1;" parent="1" vertex="1">
          <mxGeometry x="670" y="350" width="80" height="50" as="geometry" />
        </mxCell>
        <mxCell id="lDLtrvK9s7OYPXzlOgYv-13" style="edgeStyle=orthogonalEdgeStyle;rounded=0;orthogonalLoop=1;jettySize=auto;html=1;exitX=0.5;exitY=1;exitDx=0;exitDy=0;entryX=0.5;entryY=0;entryDx=0;entryDy=0;" parent="1" source="lDLtrvK9s7OYPXzlOgYv-11" target="lDLtrvK9s7OYPXzlOgYv-8" edge="1">
          <mxGeometry relative="1" as="geometry" />
        </mxCell>
        <mxCell id="lDLtrvK9s7OYPXzlOgYv-11" value="получает значения" style="rounded=1;whiteSpace=wrap;html=1;" parent="1" vertex="1">
          <mxGeometry x="660" y="280" width="100" height="40" as="geometry" />
        </mxCell>
        <mxCell id="lDLtrvK9s7OYPXzlOgYv-27" style="edgeStyle=orthogonalEdgeStyle;rounded=0;orthogonalLoop=1;jettySize=auto;html=1;exitX=0.5;exitY=1;exitDx=0;exitDy=0;entryX=1;entryY=0.5;entryDx=0;entryDy=0;" parent="1" source="lDLtrvK9s7OYPXzlOgYv-15" target="lDLtrvK9s7OYPXzlOgYv-26" edge="1">
          <mxGeometry relative="1" as="geometry" />
        </mxCell>
        <mxCell id="lDLtrvK9s7OYPXzlOgYv-15" value="получает значения" style="rounded=1;whiteSpace=wrap;html=1;" parent="1" vertex="1">
          <mxGeometry x="815" y="355" width="100" height="40" as="geometry" />
        </mxCell>
        <mxCell id="lDLtrvK9s7OYPXzlOgYv-17" value="да" style="text;html=1;strokeColor=none;fillColor=none;align=center;verticalAlign=middle;whiteSpace=wrap;rounded=0;" parent="1" vertex="1">
          <mxGeometry x="740" y="350" width="60" height="30" as="geometry" />
        </mxCell>
        <mxCell id="lDLtrvK9s7OYPXzlOgYv-20" style="edgeStyle=orthogonalEdgeStyle;rounded=0;orthogonalLoop=1;jettySize=auto;html=1;exitX=0.5;exitY=1;exitDx=0;exitDy=0;entryX=0.5;entryY=0;entryDx=0;entryDy=0;" parent="1" source="lDLtrvK9s7OYPXzlOgYv-18" target="lDLtrvK9s7OYPXzlOgYv-19" edge="1">
          <mxGeometry relative="1" as="geometry" />
        </mxCell>
        <mxCell id="lDLtrvK9s7OYPXzlOgYv-18" value="отображает график" style="rounded=1;whiteSpace=wrap;html=1;" parent="1" vertex="1">
          <mxGeometry x="490" y="500" width="100" height="40" as="geometry" />
        </mxCell>
        <mxCell id="lDLtrvK9s7OYPXzlOgYv-19" value="" style="ellipse;html=1;shape=endState;fillColor=strokeColor;" parent="1" vertex="1">
          <mxGeometry x="525" y="560" width="30" height="30" as="geometry" />
        </mxCell>
        <mxCell id="lDLtrvK9s7OYPXzlOgYv-30" style="edgeStyle=orthogonalEdgeStyle;rounded=0;orthogonalLoop=1;jettySize=auto;html=1;exitX=0.5;exitY=1;exitDx=0;exitDy=0;entryX=0.5;entryY=0;entryDx=0;entryDy=0;" parent="1" source="lDLtrvK9s7OYPXzlOgYv-22" target="lDLtrvK9s7OYPXzlOgYv-29" edge="1">
          <mxGeometry relative="1" as="geometry" />
        </mxCell>
        <mxCell id="lDLtrvK9s7OYPXzlOgYv-22" value="сообщение оператору" style="rounded=1;whiteSpace=wrap;html=1;" parent="1" vertex="1">
          <mxGeometry x="490" y="395" width="100" height="40" as="geometry" />
        </mxCell>
        <mxCell id="lDLtrvK9s7OYPXzlOgYv-24" value="нет" style="text;html=1;strokeColor=none;fillColor=none;align=center;verticalAlign=middle;whiteSpace=wrap;rounded=0;" parent="1" vertex="1">
          <mxGeometry x="620" y="350" width="60" height="30" as="geometry" />
        </mxCell>
        <mxCell id="lDLtrvK9s7OYPXzlOgYv-28" style="edgeStyle=orthogonalEdgeStyle;rounded=0;orthogonalLoop=1;jettySize=auto;html=1;exitX=0;exitY=0.5;exitDx=0;exitDy=0;entryX=1;entryY=0.5;entryDx=0;entryDy=0;" parent="1" source="lDLtrvK9s7OYPXzlOgYv-26" target="lDLtrvK9s7OYPXzlOgYv-18" edge="1">
          <mxGeometry relative="1" as="geometry" />
        </mxCell>
        <mxCell id="lDLtrvK9s7OYPXzlOgYv-26" value="начинает отрисовку" style="rounded=1;whiteSpace=wrap;html=1;" parent="1" vertex="1">
          <mxGeometry x="660" y="500" width="100" height="40" as="geometry" />
        </mxCell>
        <mxCell id="lDLtrvK9s7OYPXzlOgYv-29" value="" style="shape=sumEllipse;perimeter=ellipsePerimeter;html=1;backgroundOutline=1;" parent="1" vertex="1">
          <mxGeometry x="525" y="450" width="30" height="30" as="geometry" />
        </mxCell>
      </root>
    </mxGraphModel>
  </diagram>
  <diagram id="n3CkCaj6ebC3Um6iiWgt" name="Диаграмма состояния">
    <mxGraphModel dx="5520" dy="1318" grid="1" gridSize="10" guides="1" tooltips="1" connect="1" arrows="1" fold="1" page="1" pageScale="1" pageWidth="3300" pageHeight="4681" math="0" shadow="0">
      <root>
        <mxCell id="0" />
        <mxCell id="1" parent="0" />
        <mxCell id="-O4hA4aGUCnqiIOkUqAy-1" value="Студент" style="swimlane;childLayout=stackLayout;horizontal=1;startSize=30;horizontalStack=0;rounded=1;fontSize=14;fontStyle=0;strokeWidth=2;resizeParent=0;resizeLast=1;shadow=0;dashed=0;align=center;arcSize=23;whiteSpace=wrap;html=1;fillColor=#a20025;fontColor=#ffffff;strokeColor=#6F0000;" parent="1" vertex="1">
          <mxGeometry x="560" y="200" width="160" height="80" as="geometry" />
        </mxCell>
        <mxCell id="-O4hA4aGUCnqiIOkUqAy-2" value="включает программу" style="align=center;strokeColor=none;fillColor=none;spacingLeft=4;fontSize=12;verticalAlign=top;resizable=0;rotatable=0;part=1;html=1;" parent="-O4hA4aGUCnqiIOkUqAy-1" vertex="1">
          <mxGeometry y="30" width="160" height="50" as="geometry" />
        </mxCell>
        <mxCell id="-O4hA4aGUCnqiIOkUqAy-3" style="edgeStyle=orthogonalEdgeStyle;rounded=0;orthogonalLoop=1;jettySize=auto;html=1;" parent="1" source="-O4hA4aGUCnqiIOkUqAy-4" target="-O4hA4aGUCnqiIOkUqAy-1" edge="1">
          <mxGeometry relative="1" as="geometry" />
        </mxCell>
        <mxCell id="-O4hA4aGUCnqiIOkUqAy-4" value="" style="ellipse;html=1;fillColor=#000000;" parent="1" vertex="1">
          <mxGeometry x="625" y="80" width="30" height="30" as="geometry" />
        </mxCell>
        <mxCell id="-O4hA4aGUCnqiIOkUqAy-5" value="" style="endArrow=none;html=1;rounded=0;" parent="1" edge="1">
          <mxGeometry width="50" height="50" relative="1" as="geometry">
            <mxPoint x="640" y="500" as="sourcePoint" />
            <mxPoint x="640" y="380" as="targetPoint" />
          </mxGeometry>
        </mxCell>
        <mxCell id="-O4hA4aGUCnqiIOkUqAy-6" value="Студент" style="swimlane;childLayout=stackLayout;horizontal=1;startSize=30;horizontalStack=0;rounded=1;fontSize=14;fontStyle=0;strokeWidth=2;resizeParent=0;resizeLast=1;shadow=0;dashed=0;align=center;arcSize=23;whiteSpace=wrap;html=1;fillColor=#a20025;fontColor=#ffffff;strokeColor=#6F0000;" parent="1" vertex="1">
          <mxGeometry x="400" y="400" width="160" height="80" as="geometry" />
        </mxCell>
        <mxCell id="-O4hA4aGUCnqiIOkUqAy-7" value="вводит значение" style="align=center;strokeColor=none;fillColor=none;spacingLeft=4;fontSize=12;verticalAlign=top;resizable=0;rotatable=0;part=1;html=1;" parent="-O4hA4aGUCnqiIOkUqAy-6" vertex="1">
          <mxGeometry y="30" width="160" height="50" as="geometry" />
        </mxCell>
        <mxCell id="-O4hA4aGUCnqiIOkUqAy-8" style="edgeStyle=orthogonalEdgeStyle;rounded=0;orthogonalLoop=1;jettySize=auto;html=1;entryX=0.5;entryY=0;entryDx=0;entryDy=0;" parent="1" source="-O4hA4aGUCnqiIOkUqAy-2" target="-O4hA4aGUCnqiIOkUqAy-6" edge="1">
          <mxGeometry relative="1" as="geometry" />
        </mxCell>
        <mxCell id="-O4hA4aGUCnqiIOkUqAy-9" value="Студент" style="swimlane;childLayout=stackLayout;horizontal=1;startSize=30;horizontalStack=0;rounded=1;fontSize=14;fontStyle=0;strokeWidth=2;resizeParent=0;resizeLast=1;shadow=0;dashed=0;align=center;arcSize=23;whiteSpace=wrap;html=1;fillColor=#a20025;fontColor=#ffffff;strokeColor=#6F0000;" parent="1" vertex="1">
          <mxGeometry x="720" y="400" width="160" height="80" as="geometry" />
        </mxCell>
        <mxCell id="-O4hA4aGUCnqiIOkUqAy-10" value="выходит из системы" style="align=center;strokeColor=none;fillColor=none;spacingLeft=4;fontSize=12;verticalAlign=top;resizable=0;rotatable=0;part=1;html=1;" parent="-O4hA4aGUCnqiIOkUqAy-9" vertex="1">
          <mxGeometry y="30" width="160" height="50" as="geometry" />
        </mxCell>
        <mxCell id="-O4hA4aGUCnqiIOkUqAy-11" style="edgeStyle=orthogonalEdgeStyle;rounded=0;orthogonalLoop=1;jettySize=auto;html=1;entryX=0.5;entryY=0;entryDx=0;entryDy=0;" parent="1" source="-O4hA4aGUCnqiIOkUqAy-2" target="-O4hA4aGUCnqiIOkUqAy-9" edge="1">
          <mxGeometry relative="1" as="geometry" />
        </mxCell>
        <mxCell id="-O4hA4aGUCnqiIOkUqAy-13" style="edgeStyle=orthogonalEdgeStyle;rounded=0;orthogonalLoop=1;jettySize=auto;html=1;exitX=0.5;exitY=1;exitDx=0;exitDy=0;entryX=1;entryY=0.25;entryDx=0;entryDy=0;" parent="1" source="-O4hA4aGUCnqiIOkUqAy-7" target="Tka2Nljgn34Tm-u9-Sdr-2" edge="1">
          <mxGeometry relative="1" as="geometry">
            <mxPoint x="640" y="600" as="targetPoint" />
          </mxGeometry>
        </mxCell>
        <mxCell id="Tka2Nljgn34Tm-u9-Sdr-6" value="передает в прогу" style="edgeLabel;html=1;align=center;verticalAlign=middle;resizable=0;points=[];" parent="-O4hA4aGUCnqiIOkUqAy-13" vertex="1" connectable="0">
          <mxGeometry x="0.6012" y="-4" relative="1" as="geometry">
            <mxPoint as="offset" />
          </mxGeometry>
        </mxCell>
        <mxCell id="-O4hA4aGUCnqiIOkUqAy-15" value="" style="ellipse;html=1;shape=endState;fillColor=strokeColor;" parent="1" vertex="1">
          <mxGeometry x="950" y="425" width="30" height="30" as="geometry" />
        </mxCell>
        <mxCell id="-O4hA4aGUCnqiIOkUqAy-17" style="edgeStyle=orthogonalEdgeStyle;rounded=0;orthogonalLoop=1;jettySize=auto;html=1;exitX=1;exitY=0.25;exitDx=0;exitDy=0;entryX=0;entryY=0.5;entryDx=0;entryDy=0;" parent="1" source="-O4hA4aGUCnqiIOkUqAy-10" target="-O4hA4aGUCnqiIOkUqAy-15" edge="1">
          <mxGeometry relative="1" as="geometry" />
        </mxCell>
        <mxCell id="Tka2Nljgn34Tm-u9-Sdr-29" style="edgeStyle=orthogonalEdgeStyle;rounded=0;orthogonalLoop=1;jettySize=auto;html=1;exitX=0.5;exitY=1;exitDx=0;exitDy=0;entryX=0.5;entryY=0;entryDx=0;entryDy=0;" parent="1" source="Tka2Nljgn34Tm-u9-Sdr-2" target="Tka2Nljgn34Tm-u9-Sdr-28" edge="1">
          <mxGeometry relative="1" as="geometry" />
        </mxCell>
        <mxCell id="Tka2Nljgn34Tm-u9-Sdr-2" value="Practica ochen sloznay" style="swimlane;childLayout=stackLayout;horizontal=1;startSize=30;horizontalStack=0;rounded=1;fontSize=14;fontStyle=0;strokeWidth=2;resizeParent=0;resizeLast=1;shadow=0;dashed=0;align=center;arcSize=23;whiteSpace=wrap;html=1;resizable=1;swimlaneLine=0;fillStyle=solid;fillColor=#a20025;fontColor=#ffffff;strokeColor=#6F0000;movable=1;rotatable=1;deletable=1;editable=1;locked=0;connectable=1;" parent="1" vertex="1">
          <mxGeometry x="-380" y="180" width="580" height="700" as="geometry">
            <mxRectangle x="380" y="80" width="280" height="30" as="alternateBounds" />
          </mxGeometry>
        </mxCell>
        <mxCell id="Tka2Nljgn34Tm-u9-Sdr-7" style="edgeStyle=orthogonalEdgeStyle;rounded=0;orthogonalLoop=1;jettySize=auto;html=1;exitX=0.5;exitY=1;exitDx=0;exitDy=0;entryX=0.5;entryY=0;entryDx=0;entryDy=0;" parent="1" source="Tka2Nljgn34Tm-u9-Sdr-3" target="Tka2Nljgn34Tm-u9-Sdr-4" edge="1">
          <mxGeometry relative="1" as="geometry" />
        </mxCell>
        <mxCell id="Tka2Nljgn34Tm-u9-Sdr-22" value="прога получила значения" style="edgeLabel;html=1;align=center;verticalAlign=middle;resizable=0;points=[];" parent="Tka2Nljgn34Tm-u9-Sdr-7" vertex="1" connectable="0">
          <mxGeometry x="-0.0627" y="1" relative="1" as="geometry">
            <mxPoint as="offset" />
          </mxGeometry>
        </mxCell>
        <mxCell id="Tka2Nljgn34Tm-u9-Sdr-3" value="" style="ellipse;" parent="1" vertex="1">
          <mxGeometry x="-55" y="240" width="30" height="30" as="geometry" />
        </mxCell>
        <mxCell id="Tka2Nljgn34Tm-u9-Sdr-4" value="программа" style="swimlane;childLayout=stackLayout;horizontal=1;startSize=30;horizontalStack=0;rounded=1;fontSize=14;fontStyle=0;strokeWidth=2;resizeParent=0;resizeLast=1;shadow=0;dashed=0;align=center;arcSize=23;whiteSpace=wrap;html=1;fillColor=#a20025;fontColor=#ffffff;strokeColor=#6F0000;" parent="1" vertex="1">
          <mxGeometry x="-120" y="300" width="160" height="80" as="geometry" />
        </mxCell>
        <mxCell id="Tka2Nljgn34Tm-u9-Sdr-5" value="получает значение" style="align=center;strokeColor=none;fillColor=none;spacingLeft=4;fontSize=12;verticalAlign=top;resizable=0;rotatable=0;part=1;html=1;" parent="Tka2Nljgn34Tm-u9-Sdr-4" vertex="1">
          <mxGeometry y="30" width="160" height="50" as="geometry" />
        </mxCell>
        <mxCell id="Tka2Nljgn34Tm-u9-Sdr-8" value="программа" style="swimlane;childLayout=stackLayout;horizontal=1;startSize=30;horizontalStack=0;rounded=1;fontSize=14;fontStyle=0;strokeWidth=2;resizeParent=0;resizeLast=1;shadow=0;dashed=0;align=center;arcSize=23;whiteSpace=wrap;html=1;fillColor=#a20025;fontColor=#ffffff;strokeColor=#6F0000;" parent="1" vertex="1">
          <mxGeometry x="-120" y="430" width="160" height="80" as="geometry" />
        </mxCell>
        <mxCell id="Tka2Nljgn34Tm-u9-Sdr-9" value="передает в класс" style="align=center;strokeColor=none;fillColor=none;spacingLeft=4;fontSize=12;verticalAlign=top;resizable=0;rotatable=0;part=1;html=1;" parent="Tka2Nljgn34Tm-u9-Sdr-8" vertex="1">
          <mxGeometry y="30" width="160" height="50" as="geometry" />
        </mxCell>
        <mxCell id="Tka2Nljgn34Tm-u9-Sdr-11" style="edgeStyle=orthogonalEdgeStyle;rounded=0;orthogonalLoop=1;jettySize=auto;html=1;exitX=0.5;exitY=1;exitDx=0;exitDy=0;entryX=0.5;entryY=0;entryDx=0;entryDy=0;" parent="1" source="Tka2Nljgn34Tm-u9-Sdr-5" target="Tka2Nljgn34Tm-u9-Sdr-8" edge="1">
          <mxGeometry relative="1" as="geometry" />
        </mxCell>
        <mxCell id="Tka2Nljgn34Tm-u9-Sdr-12" value="проверка" style="swimlane;childLayout=stackLayout;horizontal=1;startSize=30;horizontalStack=0;rounded=1;fontSize=14;fontStyle=0;strokeWidth=2;resizeParent=0;resizeLast=1;shadow=0;dashed=0;align=center;arcSize=23;whiteSpace=wrap;html=1;fillColor=#a20025;fontColor=#ffffff;strokeColor=#6F0000;" parent="1" vertex="1">
          <mxGeometry x="-120" y="555" width="160" height="80" as="geometry" />
        </mxCell>
        <mxCell id="Tka2Nljgn34Tm-u9-Sdr-13" value="буквы/циферки" style="align=center;strokeColor=none;fillColor=none;spacingLeft=4;fontSize=12;verticalAlign=top;resizable=0;rotatable=0;part=1;html=1;" parent="Tka2Nljgn34Tm-u9-Sdr-12" vertex="1">
          <mxGeometry y="30" width="160" height="50" as="geometry" />
        </mxCell>
        <mxCell id="Tka2Nljgn34Tm-u9-Sdr-14" value="проверка" style="swimlane;childLayout=stackLayout;horizontal=1;startSize=30;horizontalStack=0;rounded=1;fontSize=14;fontStyle=0;strokeWidth=2;resizeParent=0;resizeLast=1;shadow=0;dashed=0;align=center;arcSize=23;whiteSpace=wrap;html=1;fillColor=#a20025;fontColor=#ffffff;strokeColor=#6F0000;" parent="1" vertex="1">
          <mxGeometry x="-280" y="690" width="160" height="80" as="geometry" />
        </mxCell>
        <mxCell id="Tka2Nljgn34Tm-u9-Sdr-15" value="рисует график" style="align=center;strokeColor=none;fillColor=none;spacingLeft=4;fontSize=12;verticalAlign=top;resizable=0;rotatable=0;part=1;html=1;" parent="Tka2Nljgn34Tm-u9-Sdr-14" vertex="1">
          <mxGeometry y="30" width="160" height="50" as="geometry" />
        </mxCell>
        <mxCell id="Tka2Nljgn34Tm-u9-Sdr-19" value="" style="ellipse;html=1;shape=endState;fillColor=strokeColor;" parent="1" vertex="1">
          <mxGeometry x="150" y="580" width="30" height="30" as="geometry" />
        </mxCell>
        <mxCell id="Tka2Nljgn34Tm-u9-Sdr-20" style="edgeStyle=orthogonalEdgeStyle;rounded=0;orthogonalLoop=1;jettySize=auto;html=1;exitX=1;exitY=0.25;exitDx=0;exitDy=0;entryX=0;entryY=0.5;entryDx=0;entryDy=0;" parent="1" source="Tka2Nljgn34Tm-u9-Sdr-13" target="Tka2Nljgn34Tm-u9-Sdr-19" edge="1">
          <mxGeometry relative="1" as="geometry" />
        </mxCell>
        <mxCell id="Tka2Nljgn34Tm-u9-Sdr-24" value="введены цифры" style="edgeLabel;html=1;align=center;verticalAlign=middle;resizable=0;points=[];" parent="Tka2Nljgn34Tm-u9-Sdr-20" vertex="1" connectable="0">
          <mxGeometry x="-0.0994" y="-2" relative="1" as="geometry">
            <mxPoint as="offset" />
          </mxGeometry>
        </mxCell>
        <mxCell id="Tka2Nljgn34Tm-u9-Sdr-21" style="edgeStyle=orthogonalEdgeStyle;rounded=0;orthogonalLoop=1;jettySize=auto;html=1;exitX=0;exitY=0.25;exitDx=0;exitDy=0;entryX=0.5;entryY=0;entryDx=0;entryDy=0;" parent="1" source="Tka2Nljgn34Tm-u9-Sdr-13" target="Tka2Nljgn34Tm-u9-Sdr-14" edge="1">
          <mxGeometry relative="1" as="geometry" />
        </mxCell>
        <mxCell id="Tka2Nljgn34Tm-u9-Sdr-25" value="введены буквы" style="edgeLabel;html=1;align=center;verticalAlign=middle;resizable=0;points=[];" parent="Tka2Nljgn34Tm-u9-Sdr-21" vertex="1" connectable="0">
          <mxGeometry x="0.2899" relative="1" as="geometry">
            <mxPoint y="-1" as="offset" />
          </mxGeometry>
        </mxCell>
        <mxCell id="Tka2Nljgn34Tm-u9-Sdr-23" style="edgeStyle=orthogonalEdgeStyle;rounded=0;orthogonalLoop=1;jettySize=auto;html=1;exitX=0.5;exitY=1;exitDx=0;exitDy=0;entryX=0.5;entryY=0;entryDx=0;entryDy=0;" parent="1" source="Tka2Nljgn34Tm-u9-Sdr-9" target="Tka2Nljgn34Tm-u9-Sdr-12" edge="1">
          <mxGeometry relative="1" as="geometry" />
        </mxCell>
        <mxCell id="Tka2Nljgn34Tm-u9-Sdr-26" value="" style="ellipse;html=1;shape=endState;fillColor=strokeColor;" parent="1" vertex="1">
          <mxGeometry x="-215" y="830" width="30" height="30" as="geometry" />
        </mxCell>
        <mxCell id="Tka2Nljgn34Tm-u9-Sdr-27" style="edgeStyle=orthogonalEdgeStyle;rounded=0;orthogonalLoop=1;jettySize=auto;html=1;exitX=0.5;exitY=1;exitDx=0;exitDy=0;entryX=0.5;entryY=0;entryDx=0;entryDy=0;" parent="1" source="Tka2Nljgn34Tm-u9-Sdr-15" target="Tka2Nljgn34Tm-u9-Sdr-26" edge="1">
          <mxGeometry relative="1" as="geometry" />
        </mxCell>
        <mxCell id="Tka2Nljgn34Tm-u9-Sdr-28" value="" style="ellipse;html=1;shape=endState;fillColor=strokeColor;" parent="1" vertex="1">
          <mxGeometry x="-55" y="1080" width="30" height="30" as="geometry" />
        </mxCell>
      </root>
    </mxGraphModel>
  </diagram>
  <diagram id="87LEfocq-TcCGkUNm-4d" name="Диаграмма классов">
    <mxGraphModel dx="1834" dy="1244" grid="1" gridSize="10" guides="1" tooltips="1" connect="1" arrows="1" fold="1" page="0" pageScale="1" pageWidth="3300" pageHeight="4681" math="0" shadow="0">
      <root>
        <mxCell id="0" />
        <mxCell id="1" parent="0" />
        <mxCell id="o2R7hMxSIoG31-9n2svY-1" value="&amp;lt;&amp;lt;Интерфейс&amp;gt;&amp;gt;&lt;div&gt;Practica ochen sloznay&lt;/div&gt;" style="swimlane;fontStyle=0;align=left;verticalAlign=top;childLayout=stackLayout;horizontal=1;startSize=50;horizontalStack=0;resizeParent=1;resizeParentMax=0;resizeLast=0;collapsible=0;marginBottom=0;html=1;whiteSpace=wrap;" parent="1" vertex="1">
          <mxGeometry x="175" y="160" width="410" height="120" as="geometry" />
        </mxCell>
        <mxCell id="o2R7hMxSIoG31-9n2svY-2" value="." style="text;html=1;strokeColor=none;fillColor=none;align=left;verticalAlign=middle;spacingLeft=4;spacingRight=4;overflow=hidden;rotatable=0;points=[[0,0.5],[1,0.5]];portConstraint=eastwest;whiteSpace=wrap;" parent="o2R7hMxSIoG31-9n2svY-1" vertex="1">
          <mxGeometry y="50" width="410" height="20" as="geometry" />
        </mxCell>
        <mxCell id="o2R7hMxSIoG31-9n2svY-3" value="" style="line;strokeWidth=1;fillColor=none;align=left;verticalAlign=middle;spacingTop=-1;spacingLeft=3;spacingRight=3;rotatable=0;labelPosition=right;points=[];portConstraint=eastwest;" parent="o2R7hMxSIoG31-9n2svY-1" vertex="1">
          <mxGeometry y="70" width="410" height="8" as="geometry" />
        </mxCell>
        <mxCell id="o2R7hMxSIoG31-9n2svY-4" value="+ graphCanvas(canvasWidth: double,&amp;nbsp;canvasHeight : double)" style="text;html=1;strokeColor=none;fillColor=none;align=left;verticalAlign=middle;spacingLeft=4;spacingRight=4;overflow=hidden;rotatable=0;points=[[0,0.5],[1,0.5]];portConstraint=eastwest;whiteSpace=wrap;" parent="o2R7hMxSIoG31-9n2svY-1" vertex="1">
          <mxGeometry y="78" width="410" height="20" as="geometry" />
        </mxCell>
        <mxCell id="o2R7hMxSIoG31-9n2svY-5" value="+ graphCanvas() : line" style="text;html=1;strokeColor=none;fillColor=none;align=left;verticalAlign=middle;spacingLeft=4;spacingRight=4;overflow=hidden;rotatable=0;points=[[0,0.5],[1,0.5]];portConstraint=eastwest;whiteSpace=wrap;" parent="o2R7hMxSIoG31-9n2svY-1" vertex="1">
          <mxGeometry y="98" width="410" height="22" as="geometry" />
        </mxCell>
        <mxCell id="o2R7hMxSIoG31-9n2svY-6" value="&amp;lt;&amp;lt;Расчёт графика&amp;gt;&amp;gt;&lt;br&gt;PlotButton_Click" style="swimlane;fontStyle=0;align=left;verticalAlign=top;childLayout=stackLayout;horizontal=1;startSize=50;horizontalStack=0;resizeParent=1;resizeParentMax=0;resizeLast=0;collapsible=0;marginBottom=0;html=1;whiteSpace=wrap;" parent="1" vertex="1">
          <mxGeometry x="-260" y="190" width="360" height="138" as="geometry" />
        </mxCell>
        <mxCell id="o2R7hMxSIoG31-9n2svY-8" value="+ x : double" style="text;html=1;strokeColor=none;fillColor=none;align=left;verticalAlign=middle;spacingLeft=4;spacingRight=4;overflow=hidden;rotatable=0;points=[[0,0.5],[1,0.5]];portConstraint=eastwest;whiteSpace=wrap;" parent="o2R7hMxSIoG31-9n2svY-6" vertex="1">
          <mxGeometry y="50" width="360" height="20" as="geometry" />
        </mxCell>
        <mxCell id="o2R7hMxSIoG31-9n2svY-9" value="+ y : double" style="text;html=1;strokeColor=none;fillColor=none;align=left;verticalAlign=middle;spacingLeft=4;spacingRight=4;overflow=hidden;rotatable=0;points=[[0,0.5],[1,0.5]];portConstraint=eastwest;whiteSpace=wrap;" parent="o2R7hMxSIoG31-9n2svY-6" vertex="1">
          <mxGeometry y="70" width="360" height="20" as="geometry" />
        </mxCell>
        <mxCell id="o2R7hMxSIoG31-9n2svY-10" value="" style="line;strokeWidth=1;fillColor=none;align=left;verticalAlign=middle;spacingTop=-1;spacingLeft=3;spacingRight=3;rotatable=0;labelPosition=right;points=[];portConstraint=eastwest;" parent="o2R7hMxSIoG31-9n2svY-6" vertex="1">
          <mxGeometry y="90" width="360" height="8" as="geometry" />
        </mxCell>
        <mxCell id="o2R7hMxSIoG31-9n2svY-11" value="+ graphCanvas(canvasWidth: double,&amp;nbsp;canvasHeight : double)" style="text;html=1;strokeColor=none;fillColor=none;align=left;verticalAlign=middle;spacingLeft=4;spacingRight=4;overflow=hidden;rotatable=0;points=[[0,0.5],[1,0.5]];portConstraint=eastwest;whiteSpace=wrap;" parent="o2R7hMxSIoG31-9n2svY-6" vertex="1">
          <mxGeometry y="98" width="360" height="20" as="geometry" />
        </mxCell>
        <mxCell id="o2R7hMxSIoG31-9n2svY-12" value="+ graphCanvas() : line" style="text;html=1;strokeColor=none;fillColor=none;align=left;verticalAlign=middle;spacingLeft=4;spacingRight=4;overflow=hidden;rotatable=0;points=[[0,0.5],[1,0.5]];portConstraint=eastwest;whiteSpace=wrap;" parent="o2R7hMxSIoG31-9n2svY-6" vertex="1">
          <mxGeometry y="118" width="360" height="20" as="geometry" />
        </mxCell>
        <mxCell id="o2R7hMxSIoG31-9n2svY-13" style="edgeStyle=orthogonalEdgeStyle;rounded=0;orthogonalLoop=1;jettySize=auto;html=1;entryX=0.002;entryY=0.456;entryDx=0;entryDy=0;entryPerimeter=0;dashed=1;endArrow=blockThin;endFill=0;" parent="1" source="o2R7hMxSIoG31-9n2svY-6" target="o2R7hMxSIoG31-9n2svY-1" edge="1">
          <mxGeometry relative="1" as="geometry" />
        </mxCell>
        <mxCell id="o2R7hMxSIoG31-9n2svY-14" style="edgeStyle=orthogonalEdgeStyle;rounded=0;orthogonalLoop=1;jettySize=auto;html=1;entryX=0.5;entryY=0;entryDx=0;entryDy=0;endArrow=diamondThin;endFill=1;" parent="1" source="o2R7hMxSIoG31-9n2svY-16" target="o2R7hMxSIoG31-9n2svY-6" edge="1">
          <mxGeometry relative="1" as="geometry" />
        </mxCell>
        <mxCell id="o2R7hMxSIoG31-9n2svY-15" value="состоит в" style="edgeLabel;html=1;align=center;verticalAlign=middle;resizable=0;points=[];" parent="o2R7hMxSIoG31-9n2svY-14" vertex="1" connectable="0">
          <mxGeometry x="-0.0083" relative="1" as="geometry">
            <mxPoint as="offset" />
          </mxGeometry>
        </mxCell>
        <mxCell id="o2R7hMxSIoG31-9n2svY-16" value="&amp;lt;&amp;lt;Функция&amp;gt;&amp;gt;&lt;br&gt;ClassPipi" style="swimlane;fontStyle=0;align=left;verticalAlign=top;childLayout=stackLayout;horizontal=1;startSize=50;horizontalStack=0;resizeParent=1;resizeParentMax=0;resizeLast=0;collapsible=0;marginBottom=0;html=1;whiteSpace=wrap;" parent="1" vertex="1">
          <mxGeometry x="-160" y="-30" width="210" height="118" as="geometry" />
        </mxCell>
        <mxCell id="o2R7hMxSIoG31-9n2svY-17" value="+ input : string" style="text;html=1;strokeColor=none;fillColor=none;align=left;verticalAlign=middle;spacingLeft=4;spacingRight=4;overflow=hidden;rotatable=0;points=[[0,0.5],[1,0.5]];portConstraint=eastwest;whiteSpace=wrap;" parent="o2R7hMxSIoG31-9n2svY-16" vertex="1">
          <mxGeometry y="50" width="210" height="20" as="geometry" />
        </mxCell>
        <mxCell id="o2R7hMxSIoG31-9n2svY-18" value="" style="line;strokeWidth=1;fillColor=none;align=left;verticalAlign=middle;spacingTop=-1;spacingLeft=3;spacingRight=3;rotatable=0;labelPosition=right;points=[];portConstraint=eastwest;" parent="o2R7hMxSIoG31-9n2svY-16" vertex="1">
          <mxGeometry y="70" width="210" height="8" as="geometry" />
        </mxCell>
        <mxCell id="o2R7hMxSIoG31-9n2svY-20" value="+ x : double" style="text;html=1;strokeColor=none;fillColor=none;align=left;verticalAlign=middle;spacingLeft=4;spacingRight=4;overflow=hidden;rotatable=0;points=[[0,0.5],[1,0.5]];portConstraint=eastwest;whiteSpace=wrap;" parent="o2R7hMxSIoG31-9n2svY-16" vertex="1">
          <mxGeometry y="78" width="210" height="20" as="geometry" />
        </mxCell>
        <mxCell id="o2R7hMxSIoG31-9n2svY-21" value="+ y : double" style="text;html=1;strokeColor=none;fillColor=none;align=left;verticalAlign=middle;spacingLeft=4;spacingRight=4;overflow=hidden;rotatable=0;points=[[0,0.5],[1,0.5]];portConstraint=eastwest;whiteSpace=wrap;" parent="o2R7hMxSIoG31-9n2svY-16" vertex="1">
          <mxGeometry y="98" width="210" height="20" as="geometry" />
        </mxCell>
        <mxCell id="o2R7hMxSIoG31-9n2svY-28" value="&lt;div&gt;&lt;span style=&quot;background-color: initial;&quot;&gt;Ввод&lt;/span&gt;&lt;br&gt;&lt;/div&gt;" style="swimlane;fontStyle=0;align=left;verticalAlign=top;childLayout=stackLayout;horizontal=1;startSize=50;horizontalStack=0;resizeParent=1;resizeParentMax=0;resizeLast=0;collapsible=0;marginBottom=0;html=1;whiteSpace=wrap;" parent="1" vertex="1">
          <mxGeometry x="-105" y="-230" width="110" height="98" as="geometry" />
        </mxCell>
        <mxCell id="o2R7hMxSIoG31-9n2svY-29" value="." style="text;html=1;strokeColor=none;fillColor=none;align=left;verticalAlign=middle;spacingLeft=4;spacingRight=4;overflow=hidden;rotatable=0;points=[[0,0.5],[1,0.5]];portConstraint=eastwest;whiteSpace=wrap;" parent="o2R7hMxSIoG31-9n2svY-28" vertex="1">
          <mxGeometry y="50" width="110" height="20" as="geometry" />
        </mxCell>
        <mxCell id="o2R7hMxSIoG31-9n2svY-30" value="" style="line;strokeWidth=1;fillColor=none;align=left;verticalAlign=middle;spacingTop=-1;spacingLeft=3;spacingRight=3;rotatable=0;labelPosition=right;points=[];portConstraint=eastwest;" parent="o2R7hMxSIoG31-9n2svY-28" vertex="1">
          <mxGeometry y="70" width="110" height="8" as="geometry" />
        </mxCell>
        <mxCell id="o2R7hMxSIoG31-9n2svY-31" value="+ input : string" style="text;html=1;strokeColor=none;fillColor=none;align=left;verticalAlign=middle;spacingLeft=4;spacingRight=4;overflow=hidden;rotatable=0;points=[[0,0.5],[1,0.5]];portConstraint=eastwest;whiteSpace=wrap;" parent="o2R7hMxSIoG31-9n2svY-28" vertex="1">
          <mxGeometry y="78" width="110" height="20" as="geometry" />
        </mxCell>
        <mxCell id="o2R7hMxSIoG31-9n2svY-32" style="edgeStyle=orthogonalEdgeStyle;rounded=0;orthogonalLoop=1;jettySize=auto;html=1;entryX=0.5;entryY=0;entryDx=0;entryDy=0;endArrow=diamondThin;endFill=1;exitX=0.518;exitY=1;exitDx=0;exitDy=0;exitPerimeter=0;" parent="1" source="o2R7hMxSIoG31-9n2svY-31" target="o2R7hMxSIoG31-9n2svY-16" edge="1">
          <mxGeometry relative="1" as="geometry">
            <mxPoint x="-200" y="-170" as="sourcePoint" />
            <mxPoint x="-250" y="-128" as="targetPoint" />
            <Array as="points">
              <mxPoint x="-48" y="-81" />
              <mxPoint x="-55" y="-81" />
            </Array>
          </mxGeometry>
        </mxCell>
        <mxCell id="o2R7hMxSIoG31-9n2svY-33" value="состоит в" style="edgeLabel;html=1;align=center;verticalAlign=middle;resizable=0;points=[];" parent="o2R7hMxSIoG31-9n2svY-32" vertex="1" connectable="0">
          <mxGeometry x="-0.0023" relative="1" as="geometry">
            <mxPoint as="offset" />
          </mxGeometry>
        </mxCell>
      </root>
    </mxGraphModel>
  </diagram>
  <diagram id="hFjAnh9m5EyLbeJzpDGd" name="Диаграмма компонентов">
    <mxGraphModel dx="1434" dy="844" grid="1" gridSize="10" guides="1" tooltips="1" connect="1" arrows="1" fold="1" page="1" pageScale="1" pageWidth="3300" pageHeight="4681" math="0" shadow="0">
      <root>
        <mxCell id="0" />
        <mxCell id="1" parent="0" />
        <mxCell id="QNT5xTztPt37k4gzItET-1" value="&lt;p style=&quot;margin:0px;margin-top:6px;text-align:center;&quot;&gt;&lt;b&gt;&amp;lt;&amp;lt;&lt;/b&gt;&lt;b style=&quot;background-color: initial;&quot;&gt;Компонент:&lt;/b&gt;&lt;/p&gt;&lt;p style=&quot;margin:0px;margin-top:6px;text-align:center;&quot;&gt;&lt;b style=&quot;background-color: initial;&quot;&gt;программа&lt;/b&gt;&lt;b&gt;&amp;gt;&amp;gt;&lt;/b&gt;&lt;/p&gt;&lt;p style=&quot;margin:0px;margin-top:6px;text-align:center;&quot;&gt;&lt;br&gt;&lt;/p&gt;&lt;p style=&quot;margin:0px;margin-top:6px;text-align:center;&quot;&gt;Приложение&lt;/p&gt;" style="align=left;overflow=fill;html=1;dropTarget=0;whiteSpace=wrap;" parent="1" vertex="1">
          <mxGeometry x="300" y="250" width="160" height="110" as="geometry" />
        </mxCell>
        <mxCell id="QNT5xTztPt37k4gzItET-2" value="" style="shape=component;jettyWidth=8;jettyHeight=4;" parent="QNT5xTztPt37k4gzItET-1" vertex="1">
          <mxGeometry x="1" width="20" height="20" relative="1" as="geometry">
            <mxPoint x="-24" y="4" as="offset" />
          </mxGeometry>
        </mxCell>
        <mxCell id="QNT5xTztPt37k4gzItET-3" value="&lt;p style=&quot;margin:0px;margin-top:6px;text-align:center;&quot;&gt;&lt;b&gt;&amp;lt;&amp;lt;&lt;/b&gt;&lt;b style=&quot;background-color: initial;&quot;&gt;Компонент:&lt;/b&gt;&lt;/p&gt;&lt;p style=&quot;margin:0px;margin-top:6px;text-align:center;&quot;&gt;&lt;b&gt;интерфейс&amp;gt;&amp;gt;&lt;/b&gt;&lt;/p&gt;&lt;p style=&quot;margin:0px;margin-top:6px;text-align:center;&quot;&gt;&lt;br&gt;&lt;/p&gt;&lt;p style=&quot;margin:0px;margin-top:6px;text-align:center;&quot;&gt;Отрисовка графика&lt;/p&gt;" style="align=left;overflow=fill;html=1;dropTarget=0;whiteSpace=wrap;" parent="1" vertex="1">
          <mxGeometry x="870" y="250" width="150" height="110" as="geometry" />
        </mxCell>
        <mxCell id="QNT5xTztPt37k4gzItET-4" value="" style="shape=component;jettyWidth=8;jettyHeight=4;" parent="QNT5xTztPt37k4gzItET-3" vertex="1">
          <mxGeometry x="1" width="20" height="20" relative="1" as="geometry">
            <mxPoint x="-24" y="4" as="offset" />
          </mxGeometry>
        </mxCell>
        <mxCell id="QNT5xTztPt37k4gzItET-5" value="Practica ochen sloznay" style="shape=umlFrame;whiteSpace=wrap;html=1;pointerEvents=0;recursiveResize=0;container=1;collapsible=0;width=160;" parent="1" vertex="1">
          <mxGeometry x="280" y="140" width="760" height="520" as="geometry" />
        </mxCell>
        <mxCell id="QNT5xTztPt37k4gzItET-6" style="edgeStyle=orthogonalEdgeStyle;rounded=0;orthogonalLoop=1;jettySize=auto;html=1;exitX=0.5;exitY=1;exitDx=0;exitDy=0;entryX=0.5;entryY=0;entryDx=0;entryDy=0;dashed=1;endArrow=open;endFill=0;" parent="QNT5xTztPt37k4gzItET-5" source="QNT5xTztPt37k4gzItET-7" target="QNT5xTztPt37k4gzItET-9" edge="1">
          <mxGeometry relative="1" as="geometry" />
        </mxCell>
        <mxCell id="QNT5xTztPt37k4gzItET-7" value="&lt;p style=&quot;margin:0px;margin-top:6px;text-align:center;&quot;&gt;&lt;b&gt;&amp;lt;&amp;lt;&lt;/b&gt;&lt;b style=&quot;background-color: initial;&quot;&gt;Компонент:&lt;/b&gt;&lt;/p&gt;&lt;p style=&quot;margin:0px;margin-top:6px;text-align:center;&quot;&gt;&lt;b&gt;ПО&amp;gt;&amp;gt;&lt;/b&gt;&lt;/p&gt;&lt;p style=&quot;margin:0px;margin-top:6px;text-align:center;&quot;&gt;&lt;br&gt;&lt;/p&gt;&lt;p style=&quot;margin:0px;margin-top:6px;text-align:center;&quot;&gt;Код программы&lt;/p&gt;" style="align=left;overflow=fill;html=1;dropTarget=0;whiteSpace=wrap;" parent="QNT5xTztPt37k4gzItET-5" vertex="1">
          <mxGeometry x="300" y="110" width="160" height="110" as="geometry" />
        </mxCell>
        <mxCell id="QNT5xTztPt37k4gzItET-8" value="" style="shape=component;jettyWidth=8;jettyHeight=4;" parent="QNT5xTztPt37k4gzItET-7" vertex="1">
          <mxGeometry x="1" width="20" height="20" relative="1" as="geometry">
            <mxPoint x="-24" y="4" as="offset" />
          </mxGeometry>
        </mxCell>
        <mxCell id="QNT5xTztPt37k4gzItET-9" value="&lt;p style=&quot;margin:0px;margin-top:6px;text-align:center;&quot;&gt;&lt;b&gt;&amp;lt;&amp;lt;&lt;/b&gt;&lt;b style=&quot;background-color: initial;&quot;&gt;Компонент:&lt;/b&gt;&lt;/p&gt;&lt;p style=&quot;margin:0px;margin-top:6px;text-align:center;&quot;&gt;&lt;b&gt;ПО&amp;gt;&amp;gt;&lt;/b&gt;&lt;/p&gt;&lt;p style=&quot;margin:0px;margin-top:6px;text-align:center;&quot;&gt;&lt;br&gt;&lt;/p&gt;&lt;p style=&quot;margin:0px;margin-top:6px;text-align:center;&quot;&gt;Хранилище функции&lt;/p&gt;" style="align=left;overflow=fill;html=1;dropTarget=0;whiteSpace=wrap;" parent="QNT5xTztPt37k4gzItET-5" vertex="1">
          <mxGeometry x="305" y="340" width="150" height="100" as="geometry" />
        </mxCell>
        <mxCell id="QNT5xTztPt37k4gzItET-10" value="" style="shape=component;jettyWidth=8;jettyHeight=4;" parent="QNT5xTztPt37k4gzItET-9" vertex="1">
          <mxGeometry x="1" width="20" height="20" relative="1" as="geometry">
            <mxPoint x="-24" y="4" as="offset" />
          </mxGeometry>
        </mxCell>
        <mxCell id="QNT5xTztPt37k4gzItET-11" value="" style="fontStyle=0;labelPosition=right;verticalLabelPosition=middle;align=left;verticalAlign=middle;spacingLeft=2;fillColor=#000000;" parent="QNT5xTztPt37k4gzItET-5" vertex="1">
          <mxGeometry x="170" y="157" width="20" height="20" as="geometry" />
        </mxCell>
        <mxCell id="QNT5xTztPt37k4gzItET-12" value="" style="fontStyle=0;labelPosition=right;verticalLabelPosition=middle;align=left;verticalAlign=middle;spacingLeft=2;fillColor=#000000;" parent="QNT5xTztPt37k4gzItET-5" vertex="1">
          <mxGeometry x="290" y="157" width="20" height="20" as="geometry" />
        </mxCell>
        <mxCell id="QNT5xTztPt37k4gzItET-13" style="edgeStyle=orthogonalEdgeStyle;rounded=0;orthogonalLoop=1;jettySize=auto;html=1;exitX=0;exitY=0.5;exitDx=0;exitDy=0;exitPerimeter=0;entryX=0;entryY=0.5;entryDx=0;entryDy=0;endArrow=none;endFill=0;" parent="QNT5xTztPt37k4gzItET-5" source="QNT5xTztPt37k4gzItET-14" target="QNT5xTztPt37k4gzItET-12" edge="1">
          <mxGeometry relative="1" as="geometry" />
        </mxCell>
        <mxCell id="QNT5xTztPt37k4gzItET-14" value="" style="shape=providedRequiredInterface;html=1;verticalLabelPosition=bottom;sketch=0;rotation=-182;fillColor=#000000;" parent="QNT5xTztPt37k4gzItET-5" vertex="1">
          <mxGeometry x="230" y="157" width="20" height="20" as="geometry" />
        </mxCell>
        <mxCell id="QNT5xTztPt37k4gzItET-15" style="edgeStyle=orthogonalEdgeStyle;rounded=0;orthogonalLoop=1;jettySize=auto;html=1;exitX=1;exitY=0.5;exitDx=0;exitDy=0;entryX=1;entryY=0.5;entryDx=0;entryDy=0;entryPerimeter=0;endArrow=none;endFill=0;" parent="QNT5xTztPt37k4gzItET-5" source="QNT5xTztPt37k4gzItET-11" target="QNT5xTztPt37k4gzItET-14" edge="1">
          <mxGeometry relative="1" as="geometry" />
        </mxCell>
        <mxCell id="QNT5xTztPt37k4gzItET-16" value="value" style="text;html=1;align=center;verticalAlign=middle;resizable=0;points=[];autosize=1;strokeColor=none;fillColor=none;" parent="QNT5xTztPt37k4gzItET-5" vertex="1">
          <mxGeometry x="175" y="130" width="50" height="30" as="geometry" />
        </mxCell>
        <mxCell id="QNT5xTztPt37k4gzItET-17" value="" style="fontStyle=0;labelPosition=right;verticalLabelPosition=middle;align=left;verticalAlign=middle;spacingLeft=2;fillColor=#000000;" parent="QNT5xTztPt37k4gzItET-5" vertex="1">
          <mxGeometry x="450" y="157" width="20" height="20" as="geometry" />
        </mxCell>
        <mxCell id="QNT5xTztPt37k4gzItET-18" value="" style="fontStyle=0;labelPosition=right;verticalLabelPosition=middle;align=left;verticalAlign=middle;spacingLeft=2;fillColor=#000000;" parent="QNT5xTztPt37k4gzItET-5" vertex="1">
          <mxGeometry x="580" y="157" width="20" height="20" as="geometry" />
        </mxCell>
        <mxCell id="QNT5xTztPt37k4gzItET-19" style="edgeStyle=orthogonalEdgeStyle;rounded=0;orthogonalLoop=1;jettySize=auto;html=1;exitX=0;exitY=0.5;exitDx=0;exitDy=0;exitPerimeter=0;entryX=0;entryY=0.5;entryDx=0;entryDy=0;endArrow=none;endFill=0;" parent="QNT5xTztPt37k4gzItET-5" source="QNT5xTztPt37k4gzItET-20" target="QNT5xTztPt37k4gzItET-18" edge="1">
          <mxGeometry relative="1" as="geometry" />
        </mxCell>
        <mxCell id="QNT5xTztPt37k4gzItET-20" value="" style="shape=providedRequiredInterface;html=1;verticalLabelPosition=bottom;sketch=0;rotation=-182;fillColor=#000000;" parent="QNT5xTztPt37k4gzItET-5" vertex="1">
          <mxGeometry x="510" y="157" width="20" height="20" as="geometry" />
        </mxCell>
        <mxCell id="QNT5xTztPt37k4gzItET-21" style="edgeStyle=orthogonalEdgeStyle;rounded=0;orthogonalLoop=1;jettySize=auto;html=1;exitX=1;exitY=0.5;exitDx=0;exitDy=0;entryX=1;entryY=0.5;entryDx=0;entryDy=0;entryPerimeter=0;endArrow=none;endFill=0;" parent="QNT5xTztPt37k4gzItET-5" source="QNT5xTztPt37k4gzItET-17" target="QNT5xTztPt37k4gzItET-20" edge="1">
          <mxGeometry relative="1" as="geometry" />
        </mxCell>
        <mxCell id="QNT5xTztPt37k4gzItET-22" value="values" style="text;html=1;align=center;verticalAlign=middle;resizable=0;points=[];autosize=1;strokeColor=none;fillColor=none;" parent="QNT5xTztPt37k4gzItET-5" vertex="1">
          <mxGeometry x="450" y="130" width="60" height="30" as="geometry" />
        </mxCell>
      </root>
    </mxGraphModel>
  </diagram>
  <diagram id="RW4a1T3TegYRtJwSnZGI" name="Диаграмма кооперации">
    <mxGraphModel dx="1434" dy="844" grid="1" gridSize="10" guides="1" tooltips="1" connect="1" arrows="1" fold="1" page="1" pageScale="1" pageWidth="3300" pageHeight="4681" math="0" shadow="0">
      <root>
        <mxCell id="0" />
        <mxCell id="1" parent="0" />
        <mxCell id="Y-wtj4b5vtuGtZd9iEMY-1" value="Пользователь" style="shape=umlActor;verticalLabelPosition=bottom;verticalAlign=top;html=1;outlineConnect=0;" parent="1" vertex="1">
          <mxGeometry x="30" y="200" width="30" height="60" as="geometry" />
        </mxCell>
        <mxCell id="Y-wtj4b5vtuGtZd9iEMY-2" value="О1: MainWindow.xaml" style="rounded=0;whiteSpace=wrap;html=1;" parent="1" vertex="1">
          <mxGeometry x="190" y="200" width="120" height="60" as="geometry" />
        </mxCell>
        <mxCell id="Y-wtj4b5vtuGtZd9iEMY-3" value="" style="endArrow=none;html=1;rounded=0;exitX=0.5;exitY=0.5;exitDx=0;exitDy=0;exitPerimeter=0;" parent="1" source="Y-wtj4b5vtuGtZd9iEMY-1" target="Y-wtj4b5vtuGtZd9iEMY-2" edge="1">
          <mxGeometry width="50" height="50" relative="1" as="geometry">
            <mxPoint x="240" y="270" as="sourcePoint" />
            <mxPoint x="290" y="230" as="targetPoint" />
          </mxGeometry>
        </mxCell>
        <mxCell id="Y-wtj4b5vtuGtZd9iEMY-4" value="1. Ввод слово" style="text;html=1;strokeColor=none;fillColor=none;align=center;verticalAlign=middle;whiteSpace=wrap;rounded=0;" parent="1" vertex="1">
          <mxGeometry x="100" y="190" width="90" height="30" as="geometry" />
        </mxCell>
        <mxCell id="Y-wtj4b5vtuGtZd9iEMY-5" value="6. Результат" style="text;html=1;strokeColor=none;fillColor=none;align=center;verticalAlign=middle;whiteSpace=wrap;rounded=0;" parent="1" vertex="1">
          <mxGeometry x="76" y="240" width="90" height="30" as="geometry" />
        </mxCell>
        <mxCell id="Y-wtj4b5vtuGtZd9iEMY-6" value="" style="ellipse;html=1;" parent="1" vertex="1">
          <mxGeometry x="166" y="250" width="10" height="10" as="geometry" />
        </mxCell>
        <mxCell id="Y-wtj4b5vtuGtZd9iEMY-7" value="" style="endArrow=open;html=1;rounded=0;align=center;verticalAlign=top;endFill=0;labelBackgroundColor=none;endSize=6;" parent="1" edge="1">
          <mxGeometry relative="1" as="geometry">
            <mxPoint x="146" y="255" as="targetPoint" />
            <mxPoint x="166" y="254.86" as="sourcePoint" />
          </mxGeometry>
        </mxCell>
        <mxCell id="Y-wtj4b5vtuGtZd9iEMY-8" value="" style="ellipse;html=1;" parent="1" vertex="1">
          <mxGeometry x="76" y="210" width="10" height="10" as="geometry" />
        </mxCell>
        <mxCell id="Y-wtj4b5vtuGtZd9iEMY-9" value="" style="endArrow=open;html=1;rounded=0;align=center;verticalAlign=top;endFill=0;labelBackgroundColor=none;endSize=6;" parent="1" edge="1">
          <mxGeometry relative="1" as="geometry">
            <mxPoint x="106" y="215" as="targetPoint" />
            <mxPoint x="86" y="215" as="sourcePoint" />
          </mxGeometry>
        </mxCell>
        <mxCell id="Y-wtj4b5vtuGtZd9iEMY-10" value="К1: ClassPipi" style="rounded=0;whiteSpace=wrap;html=1;" parent="1" vertex="1">
          <mxGeometry x="760" y="200" width="120" height="60" as="geometry" />
        </mxCell>
        <mxCell id="Y-wtj4b5vtuGtZd9iEMY-11" value="" style="endArrow=none;html=1;rounded=0;exitX=1;exitY=0.5;exitDx=0;exitDy=0;entryX=0;entryY=0.5;entryDx=0;entryDy=0;" parent="1" source="Y-wtj4b5vtuGtZd9iEMY-2" target="Y-wtj4b5vtuGtZd9iEMY-13" edge="1">
          <mxGeometry width="50" height="50" relative="1" as="geometry">
            <mxPoint x="414" y="300" as="sourcePoint" />
            <mxPoint x="543" y="300" as="targetPoint" />
          </mxGeometry>
        </mxCell>
        <mxCell id="Y-wtj4b5vtuGtZd9iEMY-12" style="edgeStyle=orthogonalEdgeStyle;rounded=0;orthogonalLoop=1;jettySize=auto;html=1;exitX=1;exitY=0.5;exitDx=0;exitDy=0;entryX=0;entryY=0.5;entryDx=0;entryDy=0;endArrow=none;endFill=0;" parent="1" source="Y-wtj4b5vtuGtZd9iEMY-13" target="Y-wtj4b5vtuGtZd9iEMY-10" edge="1">
          <mxGeometry relative="1" as="geometry" />
        </mxCell>
        <mxCell id="Y-wtj4b5vtuGtZd9iEMY-13" value="О1: MainWindow.xaml.cs" style="rounded=0;whiteSpace=wrap;html=1;" parent="1" vertex="1">
          <mxGeometry x="480" y="200" width="120" height="60" as="geometry" />
        </mxCell>
        <mxCell id="Y-wtj4b5vtuGtZd9iEMY-14" value="2. Передача" style="text;html=1;strokeColor=none;fillColor=none;align=center;verticalAlign=middle;whiteSpace=wrap;rounded=0;" parent="1" vertex="1">
          <mxGeometry x="350" y="200" width="90" height="30" as="geometry" />
        </mxCell>
        <mxCell id="Y-wtj4b5vtuGtZd9iEMY-15" value="" style="ellipse;html=1;" parent="1" vertex="1">
          <mxGeometry x="310" y="210" width="10" height="10" as="geometry" />
        </mxCell>
        <mxCell id="Y-wtj4b5vtuGtZd9iEMY-16" value="" style="endArrow=open;html=1;rounded=0;align=center;verticalAlign=top;endFill=0;labelBackgroundColor=none;endSize=6;" parent="1" edge="1">
          <mxGeometry relative="1" as="geometry">
            <mxPoint x="340" y="215" as="targetPoint" />
            <mxPoint x="320" y="215" as="sourcePoint" />
          </mxGeometry>
        </mxCell>
        <mxCell id="Y-wtj4b5vtuGtZd9iEMY-17" value="Проверка" style="text;html=1;strokeColor=none;fillColor=none;align=center;verticalAlign=middle;whiteSpace=wrap;rounded=0;" parent="1" vertex="1">
          <mxGeometry x="642" y="200" width="106" height="30" as="geometry" />
        </mxCell>
        <mxCell id="Y-wtj4b5vtuGtZd9iEMY-18" value="" style="ellipse;html=1;" parent="1" vertex="1">
          <mxGeometry x="610" y="210" width="10" height="10" as="geometry" />
        </mxCell>
        <mxCell id="Y-wtj4b5vtuGtZd9iEMY-19" value="" style="endArrow=open;html=1;rounded=0;align=center;verticalAlign=top;endFill=0;labelBackgroundColor=none;endSize=6;" parent="1" edge="1">
          <mxGeometry relative="1" as="geometry">
            <mxPoint x="640" y="215" as="targetPoint" />
            <mxPoint x="620" y="215" as="sourcePoint" />
          </mxGeometry>
        </mxCell>
        <mxCell id="Y-wtj4b5vtuGtZd9iEMY-20" value="5. Отрисовка в Canvas" style="text;html=1;strokeColor=none;fillColor=none;align=center;verticalAlign=middle;whiteSpace=wrap;rounded=0;" parent="1" vertex="1">
          <mxGeometry x="350" y="240" width="90" height="30" as="geometry" />
        </mxCell>
        <mxCell id="Y-wtj4b5vtuGtZd9iEMY-21" value="" style="ellipse;html=1;" parent="1" vertex="1">
          <mxGeometry x="460" y="250" width="10" height="10" as="geometry" />
        </mxCell>
        <mxCell id="Y-wtj4b5vtuGtZd9iEMY-22" value="" style="endArrow=open;html=1;rounded=0;align=center;verticalAlign=top;endFill=0;labelBackgroundColor=none;endSize=6;" parent="1" edge="1">
          <mxGeometry relative="1" as="geometry">
            <mxPoint x="440" y="255" as="targetPoint" />
            <mxPoint x="460" y="254.86" as="sourcePoint" />
          </mxGeometry>
        </mxCell>
        <mxCell id="Y-wtj4b5vtuGtZd9iEMY-23" value="4. Передача" style="text;html=1;strokeColor=none;fillColor=none;align=center;verticalAlign=middle;whiteSpace=wrap;rounded=0;" parent="1" vertex="1">
          <mxGeometry x="650" y="230" width="90" height="30" as="geometry" />
        </mxCell>
        <mxCell id="Y-wtj4b5vtuGtZd9iEMY-24" value="" style="ellipse;html=1;" parent="1" vertex="1">
          <mxGeometry x="740" y="240" width="10" height="10" as="geometry" />
        </mxCell>
        <mxCell id="Y-wtj4b5vtuGtZd9iEMY-25" value="" style="endArrow=open;html=1;rounded=0;align=center;verticalAlign=top;endFill=0;labelBackgroundColor=none;endSize=6;" parent="1" edge="1">
          <mxGeometry relative="1" as="geometry">
            <mxPoint x="720" y="245" as="targetPoint" />
            <mxPoint x="740" y="244.86" as="sourcePoint" />
          </mxGeometry>
        </mxCell>
      </root>
    </mxGraphModel>
  </diagram>
  <diagram id="pj_5pQmfTiX_1hQwrLN5" name="Диаграмма развертвывания">
    <mxGraphModel dx="1221" dy="725" grid="1" gridSize="10" guides="1" tooltips="1" connect="1" arrows="1" fold="1" page="1" pageScale="1" pageWidth="3300" pageHeight="4681" math="0" shadow="0">
      <root>
        <mxCell id="0" />
        <mxCell id="1" parent="0" />
        <mxCell id="j-372-L6ln6g2m5JhsrX-1" value="" style="group" parent="1" vertex="1" connectable="0">
          <mxGeometry x="120" y="90" width="180" height="120" as="geometry" />
        </mxCell>
        <mxCell id="j-372-L6ln6g2m5JhsrX-2" value="Устройство" style="verticalAlign=top;align=left;spacingTop=8;spacingLeft=2;spacingRight=12;shape=cube;size=10;direction=south;fontStyle=4;html=1;whiteSpace=wrap;" parent="j-372-L6ln6g2m5JhsrX-1" vertex="1">
          <mxGeometry width="180" height="120" as="geometry" />
        </mxCell>
        <mxCell id="dj6gnhAXcd4LS1U6O9MB-1" value="+ОС: Windows&lt;br&gt;+Интернет: 100 мбит/сек" style="rounded=0;whiteSpace=wrap;html=1;align=left;" parent="j-372-L6ln6g2m5JhsrX-1" vertex="1">
          <mxGeometry x="10" y="60" width="150" height="40" as="geometry" />
        </mxCell>
        <mxCell id="j-372-L6ln6g2m5JhsrX-9" value="" style="group" parent="1" vertex="1" connectable="0">
          <mxGeometry x="410" y="90" width="180" height="180" as="geometry" />
        </mxCell>
        <mxCell id="j-372-L6ln6g2m5JhsrX-10" value="" style="group" parent="j-372-L6ln6g2m5JhsrX-9" vertex="1" connectable="0">
          <mxGeometry x="40" y="7.5" width="180" height="180" as="geometry" />
        </mxCell>
        <mxCell id="j-372-L6ln6g2m5JhsrX-11" value="«Practica ochen sloznay»" style="verticalAlign=top;align=left;spacingTop=8;spacingLeft=2;spacingRight=12;shape=cube;size=10;direction=south;fontStyle=4;html=1;whiteSpace=wrap;" parent="j-372-L6ln6g2m5JhsrX-10" vertex="1">
          <mxGeometry x="-36" y="-10" width="180" height="180" as="geometry" />
        </mxCell>
        <mxCell id="j-372-L6ln6g2m5JhsrX-12" value="Класс" style="html=1;dropTarget=0;whiteSpace=wrap;" parent="j-372-L6ln6g2m5JhsrX-10" vertex="1">
          <mxGeometry x="-16" y="42.5" width="140" height="40" as="geometry" />
        </mxCell>
        <mxCell id="j-372-L6ln6g2m5JhsrX-13" value="" style="shape=module;jettyWidth=8;jettyHeight=4;" parent="j-372-L6ln6g2m5JhsrX-12" vertex="1">
          <mxGeometry x="1" width="20" height="20" relative="1" as="geometry">
            <mxPoint x="-27" y="7" as="offset" />
          </mxGeometry>
        </mxCell>
        <mxCell id="j-372-L6ln6g2m5JhsrX-14" value="Функция" style="html=1;dropTarget=0;whiteSpace=wrap;" parent="j-372-L6ln6g2m5JhsrX-10" vertex="1">
          <mxGeometry x="-16" y="102.5" width="140" height="40" as="geometry" />
        </mxCell>
        <mxCell id="j-372-L6ln6g2m5JhsrX-15" value="" style="shape=module;jettyWidth=8;jettyHeight=4;" parent="j-372-L6ln6g2m5JhsrX-14" vertex="1">
          <mxGeometry x="1" width="20" height="20" relative="1" as="geometry">
            <mxPoint x="-27" y="7" as="offset" />
          </mxGeometry>
        </mxCell>
        <mxCell id="j-372-L6ln6g2m5JhsrX-16" value="" style="endArrow=none;html=1;rounded=0;entryX=0.402;entryY=0.993;entryDx=0;entryDy=0;entryPerimeter=0;" parent="1" target="j-372-L6ln6g2m5JhsrX-11" edge="1">
          <mxGeometry width="50" height="50" relative="1" as="geometry">
            <mxPoint x="300" y="160" as="sourcePoint" />
            <mxPoint x="350" y="110" as="targetPoint" />
          </mxGeometry>
        </mxCell>
      </root>
    </mxGraphModel>
  </diagram>
</mxfile>
